<svg width="15" height="18" viewBox="0 0 15 18" fill="none" xmlns="http://www.w3.org/2000/svg">
<path d="M9.94187 3.54188C9.0749 4.40885 7.4302 4.1698 7.4302 4.1698C7.4302 4.1698 7.19114 2.5251 8.05812 1.65812C8.92509 0.791148 10.5698 1.0302 10.5698 1.0302C10.5698 1.0302 10.8088 2.6749 9.94187 3.54188Z" stroke="white" stroke-linejoin="round"/>
<path d="M1 10.6475C1 13.2728 2.75716 16.2883 4.53512 16.9255C5.15152 17.1464 5.78863 16.8415 6.31831 16.4619C6.72015 16.1739 7.20674 15.8989 7.59973 15.8989C7.99272 15.8989 8.47931 16.1739 8.88115 16.4619C9.41083 16.8415 10.0479 17.1464 10.6643 16.9255C11.9277 16.4727 13.1806 14.8191 13.8 12.9579C12.6006 12.6143 11.7246 11.5291 11.7246 10.2435C11.7246 9.06569 12.4599 8.05607 13.5054 7.63089C12.8318 6.43446 11.7309 5.79999 10.4871 5.79999C9.84368 5.79999 9.25235 6.05936 8.77465 6.37027C8.01221 6.8665 7.18725 6.8665 6.42481 6.37027C5.94712 6.05936 5.35578 5.79999 4.71235 5.79999C2.66208 5.79999 1 7.52408 1 10.6475Z" stroke="white" stroke-linejoin="round"/>
</svg>
