<svg width="21" height="16" viewBox="0 0 21 16" fill="none" xmlns="http://www.w3.org/2000/svg">
<path fill-rule="evenodd" clip-rule="evenodd" d="M10.143 9.04839C9.51331 9.04839 8.88555 8.84039 8.36037 8.42439L4.13919 5.0211C3.83519 4.77639 3.78813 4.33122 4.0319 4.02816C4.27755 3.72604 4.72178 3.67804 5.02484 3.9218L9.24225 7.32133C9.77213 7.7411 10.5185 7.7411 11.0521 7.31757L15.2272 3.92369C15.5303 3.67616 15.9745 3.72322 16.2211 4.02628C16.4667 4.32839 16.4206 4.77263 16.1185 5.01922L11.9359 8.41875C11.407 8.83851 10.7745 9.04839 10.143 9.04839Z" fill="white"/>
<mask id="mask0_24_15" style="mask-type:luminance" maskUnits="userSpaceOnUse" x="0" y="0" width="21" height="16">
<path fill-rule="evenodd" clip-rule="evenodd" d="M0 0H21V16H0V0Z" fill="white"/>
</mask>
<g mask="url(#mask0_24_15)">
<path fill-rule="evenodd" clip-rule="evenodd" d="M5.49544 14.7692H14.7378C14.7397 14.7676 14.7472 14.7692 14.7529 14.7692C15.8267 14.7692 16.7792 14.4344 17.5096 13.7986C18.3576 13.0626 18.8234 12.0049 18.8234 10.8209V5.18563C18.8234 2.89394 17.1049 1.23076 14.7378 1.23076H5.49733C3.13027 1.23076 1.41168 2.89394 1.41168 5.18563V10.8209C1.41168 12.0049 1.8785 13.0626 2.72556 13.7986C3.45591 14.4344 4.40933 14.7692 5.48227 14.7692H5.49544ZM5.47944 16C4.0272 16 2.73026 15.5405 1.72885 14.6708C0.613556 13.7009 -9.15527e-05 12.3339 -9.15527e-05 10.8209V5.18564C-9.15527e-05 2.22933 2.3632 0 5.49732 0H14.7378C17.8719 0 20.2352 2.22933 20.2352 5.18564V10.8209C20.2352 12.3339 19.6216 13.7009 18.5063 14.6708C17.5058 15.5397 16.2079 16 14.7528 16H14.7378H5.49732H5.47944Z" fill="white"/>
</g>
</svg>
