<svg width="13" height="16" viewBox="0 0 13 16" fill="none" xmlns="http://www.w3.org/2000/svg">
<mask id="mask0_31_44" style="mask-type:luminance" maskUnits="userSpaceOnUse" x="0" y="10" width="13" height="6">
<path fill-rule="evenodd" clip-rule="evenodd" d="M0 10.0622H12.7548V16H0V10.0622Z" fill="white"/>
</mask>
<g mask="url(#mask0_31_44)">
<path fill-rule="evenodd" clip-rule="evenodd" d="M6.37816 11.27C2.94706 11.27 1.20775 11.8595 1.20775 13.023C1.20775 14.1971 2.94706 14.7921 6.37816 14.7921C9.80846 14.7921 11.547 14.2027 11.547 13.0391C11.547 11.8651 9.80846 11.27 6.37816 11.27ZM6.37814 16C4.80068 16 -0.00012207 16 -0.00012207 13.023C-0.00012207 10.369 3.64034 10.0622 6.37814 10.0622C7.95559 10.0622 12.7548 10.0622 12.7548 13.0391C12.7548 15.6932 9.11513 16 6.37814 16Z" fill="#888888"/>
</g>
<mask id="mask1_31_44" style="mask-type:luminance" maskUnits="userSpaceOnUse" x="2" y="0" width="9" height="9">
<path fill-rule="evenodd" clip-rule="evenodd" d="M2.10156 0H10.6532V8.55046H2.10156V0Z" fill="white"/>
</mask>
<g mask="url(#mask1_31_44)">
<path fill-rule="evenodd" clip-rule="evenodd" d="M6.3782 1.14951C4.65419 1.14951 3.25147 2.55143 3.25147 4.27543C3.24584 5.9938 4.63809 7.39491 6.35485 7.40135L6.3782 7.97629V7.40135C8.1014 7.40135 9.50331 5.99863 9.50331 4.27543C9.50331 2.55143 8.1014 1.14951 6.3782 1.14951ZM6.37819 8.55035H6.35242C3.99952 8.54311 2.09354 6.62423 2.10159 4.27295C2.10159 1.91764 4.01966 -0.000427246 6.37819 -0.000427246C8.73591 -0.000427246 10.6532 1.91764 10.6532 4.27537C10.6532 6.63309 8.73591 8.55035 6.37819 8.55035Z" fill="#888888"/>
</g>
</svg>
