<svg width="21" height="16" viewBox="0 0 21 16" fill="none" xmlns="http://www.w3.org/2000/svg">
<path fill-rule="evenodd" clip-rule="evenodd" d="M10.143 9.04839C9.51334 9.04839 8.88558 8.84039 8.3604 8.42439L4.13922 5.0211C3.83522 4.77639 3.78816 4.33122 4.03193 4.02816C4.27758 3.72604 4.72181 3.67804 5.02487 3.9218L9.24228 7.32133C9.77216 7.7411 10.5185 7.7411 11.0522 7.31757L15.2272 3.92369C15.5303 3.67616 15.9745 3.72322 16.2211 4.02628C16.4668 4.32839 16.4206 4.77263 16.1185 5.01922L11.9359 8.41875C11.407 8.83851 10.7745 9.04839 10.143 9.04839Z" fill="#888888"/>
<mask id="mask0_33_28" style="mask-type:luminance" maskUnits="userSpaceOnUse" x="0" y="0" width="21" height="16">
<path fill-rule="evenodd" clip-rule="evenodd" d="M0 0H21V16H0V0Z" fill="white"/>
</mask>
<g mask="url(#mask0_33_28)">
<path fill-rule="evenodd" clip-rule="evenodd" d="M5.49541 14.7692H14.7378C14.7396 14.7676 14.7472 14.7692 14.7528 14.7692C15.8267 14.7692 16.7792 14.4344 17.5095 13.7986C18.3575 13.0626 18.8234 12.0049 18.8234 10.8209V5.18563C18.8234 2.89394 17.1048 1.23076 14.7378 1.23076H5.49729C3.13024 1.23076 1.41165 2.89394 1.41165 5.18563V10.8209C1.41165 12.0049 1.87847 13.0626 2.72553 13.7986C3.45588 14.4344 4.40929 14.7692 5.48224 14.7692H5.49541ZM5.47941 16C4.02717 16 2.73023 15.5405 1.72882 14.6708C0.613525 13.7009 -0.00012207 12.3339 -0.00012207 10.8209V5.18564C-0.00012207 2.22933 2.36317 0 5.49729 0H14.7378C17.8719 0 20.2352 2.22933 20.2352 5.18564V10.8209C20.2352 12.3339 19.6215 13.7009 18.5062 14.6708C17.5058 15.5397 16.2079 16 14.7528 16H14.7378H5.49729H5.47941Z" fill="#888888"/>
</g>
</svg>
